<?xml version="1.0" encoding="UTF-8" standalone="no"?>
<!-- Created with Inkscape (http://www.inkscape.org/) -->

<svg
   xmlns:dc="http://purl.org/dc/elements/1.1/"
   xmlns:cc="http://creativecommons.org/ns#"
   xmlns:rdf="http://www.w3.org/1999/02/22-rdf-syntax-ns#"
   xmlns:svg="http://www.w3.org/2000/svg"
   xmlns="http://www.w3.org/2000/svg"
   xmlns:sodipodi="http://sodipodi.sourceforge.net/DTD/sodipodi-0.dtd"
   xmlns:inkscape="http://www.inkscape.org/namespaces/inkscape"
   width="32px"
   height="32px"
   viewBox="0 0 32 32"
   version="1.1"
   id="SVGRoot"
   inkscape:version="0.92.2 (5c3e80d, 2017-08-06)"
   sodipodi:docname="document-save.svg">
  <sodipodi:namedview
     id="base"
     pagecolor="#ffffff"
     bordercolor="#666666"
     borderopacity="1.0"
     inkscape:pageopacity="0.0"
     inkscape:pageshadow="2"
     inkscape:zoom="22.627417"
     inkscape:cx="21.140811"
     inkscape:cy="13.785536"
     inkscape:document-units="px"
     inkscape:current-layer="layer1"
     showgrid="false"
     inkscape:window-width="1920"
     inkscape:window-height="1017"
     inkscape:window-x="1912"
     inkscape:window-y="-8"
     inkscape:window-maximized="1"
     inkscape:grid-bbox="true">
    <inkscape:grid
       type="xygrid"
       id="grid18314" />
  </sodipodi:namedview>
  <defs
     id="defs13812" />
  <metadata
     id="metadata13815">
    <rdf:RDF>
      <cc:Work
         rdf:about="">
        <dc:format>image/svg+xml</dc:format>
        <dc:type
           rdf:resource="http://purl.org/dc/dcmitype/StillImage" />
        <dc:title></dc:title>
      </cc:Work>
    </rdf:RDF>
  </metadata>
  <g
     id="layer1"
     inkscape:groupmode="layer"
     inkscape:label="Layer 1">
    <path
       style="fill:#f2a27f;fill-opacity:1;stroke:none;stroke-width:1px;stroke-linecap:butt;stroke-linejoin:miter;stroke-opacity:1"
       d="M 3 0 C 1 0 0 1 0 3 L 0 25 C 0 27 1 28 3 28 L 11.017578 28 L 11.017578 23.945312 L 5 23.945312 L 4.0546875 23.945312 L 4.0546875 22.054688 L 5 22.054688 L 11.017578 22.054688 L 11.017578 19.945312 L 5 19.945312 L 4.0546875 19.945312 L 4.0546875 18.054688 L 5 18.054688 L 11.017578 18.054688 L 11.017578 15.945312 L 5 15.945312 L 4.0546875 15.945312 L 4.0546875 14.054688 L 5 14.054688 L 11.017578 14.054688 L 11.017578 11.945312 L 5 11.945312 L 4.0546875 11.945312 L 4.0546875 10.054688 L 5 10.054688 L 11.017578 10.054688 L 19 10.054688 L 19.945312 10.054688 L 24 10.054688 L 24 8 L 16 0 L 3 0 z M 16 2 L 22 8 L 18 8 C 17 8 16 7 16 6 L 16 2 z "
       id="path12929" />
    <path
       style="fill:#f2a27f;fill-opacity:1;stroke:none;stroke-width:1px;stroke-linecap:butt;stroke-linejoin:miter;stroke-opacity:1"
       d="M 16 11 C 14 11 12 13 12 15 L 12 28 C 12 30 14 32 16 32 L 28 32 C 30 32 32 30 32 28 L 32 15 C 32 13 30 11 28 11 L 26.714844 11 C 28.000559 11 28.427734 12.211468 28.427734 12.714844 L 28.427734 16.142578 C 28.427734 16.645955 28.000559 18 26.714844 18 L 17.285156 18 C 15.999442 18 15.572266 16.645955 15.572266 16.142578 L 15.572266 12.714844 C 15.572266 12.211468 15.999443 11 17.285156 11 L 16 11 z M 16 21.427734 L 28 21.427734 C 29.285714 21.427734 29.714844 22.639201 29.714844 23.142578 L 29.714844 26.572266 C 29.714844 29.143694 27.999721 30 27.142578 30 L 16.857422 30 C 16.000279 30 14.285156 29.143694 14.285156 26.572266 L 14.285156 23.142578 C 14.285156 22.639201 14.714285 21.427734 16 21.427734 z "
       id="path18341" />
    <path
       style="fill:#f2a27f;fill-opacity:1;stroke:none;stroke-width:0.16997758px;stroke-linecap:butt;stroke-linejoin:miter;stroke-opacity:1"
       d="m 23.839689,16 c -0.321428,0 -0.428571,-0.966779 -0.428571,-1.326329 v -2.448945 c 0,-0.359549 0.107143,-1.224471 0.428571,-1.224471 h 2.357141 c 0.321429,0 0.428572,0.864922 0.428572,1.224471 v 2.448945 C 26.625402,15.033221 26.518259,16 26.196831,16 Z"
       id="path18341-2-3-1"
       inkscape:connector-curvature="0" />
  </g>
</svg>
