<?xml version="1.0" encoding="UTF-8" standalone="no"?>
<!-- Created with Inkscape (http://www.inkscape.org/) -->

<svg
   xmlns:dc="http://purl.org/dc/elements/1.1/"
   xmlns:cc="http://creativecommons.org/ns#"
   xmlns:rdf="http://www.w3.org/1999/02/22-rdf-syntax-ns#"
   xmlns:svg="http://www.w3.org/2000/svg"
   xmlns="http://www.w3.org/2000/svg"
   xmlns:sodipodi="http://sodipodi.sourceforge.net/DTD/sodipodi-0.dtd"
   xmlns:inkscape="http://www.inkscape.org/namespaces/inkscape"
   width="32px"
   height="32px"
   viewBox="0 0 32 32"
   version="1.1"
   id="SVGRoot"
   sodipodi:docname="document-open.svg"
   inkscape:version="0.92.2 (5c3e80d, 2017-08-06)">
  <sodipodi:namedview
     id="base"
     pagecolor="#ffffff"
     bordercolor="#666666"
     borderopacity="1.0"
     inkscape:pageopacity="0.0"
     inkscape:pageshadow="2"
     inkscape:zoom="22.627417"
     inkscape:cx="22.30084"
     inkscape:cy="18.699359"
     inkscape:document-units="px"
     inkscape:current-layer="layer1"
     showgrid="false"
     inkscape:window-width="1920"
     inkscape:window-height="1017"
     inkscape:window-x="1912"
     inkscape:window-y="-8"
     inkscape:window-maximized="1"
     inkscape:grid-bbox="true">
    <inkscape:grid
       type="xygrid"
       id="grid13738" />
  </sodipodi:namedview>
  <defs
     id="defs9247" />
  <metadata
     id="metadata9250">
    <rdf:RDF>
      <cc:Work
         rdf:about="">
        <dc:format>image/svg+xml</dc:format>
        <dc:type
           rdf:resource="http://purl.org/dc/dcmitype/StillImage" />
      </cc:Work>
    </rdf:RDF>
  </metadata>
  <g
     id="layer1"
     inkscape:groupmode="layer"
     inkscape:label="Layer 1">
    <path
       inkscape:connector-curvature="0"
       style="fill:#f2a27f;fill-opacity:1;stroke:none;stroke-width:1px;stroke-linecap:butt;stroke-linejoin:miter;stroke-opacity:1"
       d="m 8.945313,-0.054688 c -2,0 -3,1 -3,3 V 13 H 10 10.945313 30 l -0.05469,-5.054688 -8,-8 z m 13,2 6,6 h -4 c -1,0 -2,-1 -2,-2 z M 10,10 h 0.945313 14 0.945312 v 1.890624 h -0.945312 -14 H 10 Z"
       id="path12929"
       sodipodi:nodetypes="ssccccccsccsscccccccccc" />
    <path
       style="fill:#f2a27f;fill-opacity:1;stroke:none;stroke-width:1.06991351px;stroke-linecap:butt;stroke-linejoin:miter;stroke-opacity:1"
       d="M 3.0757031,30 C 0.93587618,30 0.4365833,27.860173 1.0072038,25.720346 l 1.9971717,-7.489394 c 1.20534,-4.520025 3.281068,-4.279654 5.420895,-4.279654 l 21.4146925,-0.01563 c 2.139828,0 2.488451,2.068902 1.91783,4.208728 l -1.566191,7.60938 C 29.620981,27.893607 27.683712,30 25.543886,30 Z"
       id="path13770"
       inkscape:connector-curvature="0"
       sodipodi:nodetypes="ccscccccc" />
    <path
       style="fill:#f2a27f;fill-opacity:1;stroke:none;stroke-width:1px;stroke-linecap:butt;stroke-linejoin:miter;stroke-opacity:1"
       d="M 0,25 V 12 C 0,10 3,8 5,8 v 0 l -0.022097,5.005631 c 0,0 -1.1021161,0.06721 -2.1603106,1.922447 C 1.7593977,16.783313 0,25 0,25 Z"
       id="path13802"
       inkscape:connector-curvature="0"
       sodipodi:nodetypes="ccccczc" />
  </g>
</svg>
