<?xml version="1.0" encoding="UTF-8" standalone="no"?>
<!-- Created with Inkscape (http://www.inkscape.org/) -->

<svg
   xmlns:dc="http://purl.org/dc/elements/1.1/"
   xmlns:cc="http://creativecommons.org/ns#"
   xmlns:rdf="http://www.w3.org/1999/02/22-rdf-syntax-ns#"
   xmlns:svg="http://www.w3.org/2000/svg"
   xmlns="http://www.w3.org/2000/svg"
   xmlns:sodipodi="http://sodipodi.sourceforge.net/DTD/sodipodi-0.dtd"
   xmlns:inkscape="http://www.inkscape.org/namespaces/inkscape"
   width="32px"
   height="32px"
   viewBox="0 0 32 32"
   version="1.1"
   id="SVGRoot"
   sodipodi:docname="document-new.svg"
   inkscape:version="0.92.2 (5c3e80d, 2017-08-06)">
  <sodipodi:namedview
     id="base"
     pagecolor="#ffffff"
     bordercolor="#666666"
     borderopacity="1.0"
     inkscape:pageopacity="0.0"
     inkscape:pageshadow="2"
     inkscape:zoom="16"
     inkscape:cx="24.208"
     inkscape:cy="19.732855"
     inkscape:document-units="px"
     inkscape:current-layer="layer1"
     showgrid="true"
     inkscape:window-width="1920"
     inkscape:window-height="1017"
     inkscape:window-x="-8"
     inkscape:window-y="-8"
     inkscape:window-maximized="1"
     inkscape:grid-bbox="true">
    <inkscape:grid
       type="xygrid"
       id="grid12927" />
  </sodipodi:namedview>
  <defs
     id="defs8436" />
  <metadata
     id="metadata8439">
    <rdf:RDF>
      <cc:Work
         rdf:about="">
        <dc:format>image/svg+xml</dc:format>
        <dc:type
           rdf:resource="http://purl.org/dc/dcmitype/StillImage" />
      </cc:Work>
    </rdf:RDF>
  </metadata>
  <g
     id="layer1"
     inkscape:groupmode="layer"
     inkscape:label="Layer 1">
    <path
       style="fill:#f2a27f;fill-opacity:1;stroke:none;stroke-width:1px;stroke-linecap:butt;stroke-linejoin:miter;stroke-opacity:1"
       d="M 3 0 C 1 0 0 1 0 3 L 0 25 C 0 27 1 28 3 28 L 13.431641 28 A 10.585827 10.797243 0 0 1 12.191406 23.945312 L 5 23.945312 L 4.0546875 23.945312 L 4.0546875 22.054688 L 5 22.054688 L 12.171875 22.054688 A 10.585827 10.797243 0 0 1 12.53125 19.945312 L 5 19.945312 L 4.0546875 19.945312 L 4.0546875 18.054688 L 5 18.054688 L 13.246094 18.054688 A 10.585827 10.797243 0 0 1 14.580078 15.945312 L 5 15.945312 L 4.0546875 15.945312 L 4.0546875 14.054688 L 5 14.054688 L 16.589844 14.054688 A 10.585827 10.797243 0 0 1 22.71875 12.044922 A 10.585827 10.797243 0 0 1 24 12.132812 L 24 8 L 16 0 L 3 0 z M 16 2 L 22 8 L 18 8 C 17 8 16 7 16 6 L 16 2 z M 4.0546875 10.054688 L 5 10.054688 L 19 10.054688 L 19.945312 10.054688 L 19.945312 11.945312 L 19 11.945312 L 5 11.945312 L 4.0546875 11.945312 L 4.0546875 10.054688 z M 22.927734 14 A 8.9280119 9 0 0 0 14 23 A 8.9280119 9 0 0 0 22.927734 32 A 8.9280119 9 0 0 0 31.855469 23 A 8.9280119 9 0 0 0 22.927734 14 z M 22.986328 18.041016 A 0.9449764 0.9449764 0 0 1 23.945312 19 L 23.945312 22.054688 L 27 22.054688 A 0.945312 0.945312 0 0 1 27 23.945312 L 23.945312 23.945312 L 23.945312 27 A 0.945312 0.945312 0 0 1 22.054688 27 L 22.054688 23.945312 L 19 23.945312 A 0.945312 0.945312 0 0 1 19 22.054688 L 22.054688 22.054688 L 22.054688 19 A 0.9449764 0.9449764 0 0 1 22.986328 18.041016 z "
       id="path12929" />
  </g>
</svg>
